<svg width="34" height="30" viewBox="0 0 34 30" fill="none" xmlns="http://www.w3.org/2000/svg">
<path d="M32.6719 0.390625C31.6766 0.390625 2.32342 0.390625 1.32812 0.390625C0.594602 0.390625 0 0.985227 0 1.71875V28.2812C0 29.0148 0.594602 29.6094 1.32812 29.6094H32.6719C33.4054 29.6094 34 29.0148 34 28.2812V1.71875C34 0.985227 33.4054 0.390625 32.6719 0.390625ZM13.0156 3.04688H20.9844V13.0835L17.4663 11.7642C17.1658 11.6515 16.8343 11.6515 16.5336 11.7642L13.0156 13.0835V3.04688ZM31.3438 26.9531H2.65625V3.04688H10.3594V15C10.3594 15.9261 11.2861 16.5689 12.1538 16.2436L17 14.4263L21.8462 16.2436C22.7135 16.569 23.6406 15.9264 23.6406 15V3.04688H31.3438V26.9531Z" fill="#0D0D0D"/>
</svg>
